# xmcd
#
# Track frame offsets:
#  150
#  20027
#  37802
#  55385
#
# Disc length: 961 seconds
#
# Revision: 0
# Processed by: cddbd v1.5.1PL2 Copyright (c) Steve Scherf et al.
# Submitted via: Collectorz.com_Music_Collector 6.9
#
DISCID=2c03bf04
DTITLE=Various Artist - Sony Discman
DYEAR=1900
DGENRE=
TTITLE0=René Shuman - In Our Minds
TTITLE1=Toto - Hold the Line
TTITLE2=The Pasadenas - Love Thing
TTITLE3=Paul Young - Softly Whispering
EXTD=
EXTT0=
EXTT1=
EXTT2=
EXTT3=
PLAYORDER=
